<?xml version="1.0" standalone="no"?>
<!DOCTYPE svg PUBLIC "-//W3C//DTD SVG 20010904//EN"
 "http://www.w3.org/TR/2001/REC-SVG-20010904/DTD/svg10.dtd">
<svg version="1.0" xmlns="http://www.w3.org/2000/svg"
 width="47.000000pt" height="30.000000pt" viewBox="0 0 1280.000000 1100.000000"
 preserveAspectRatio="xMidYMid meet">
<metadata>
Created by potrace 1.15, written by Peter Selinger 2001-2017
</metadata>
<g transform="translate(0.000000,1100.000000) scale(0.100000,-0.100000)"
fill="#000000" stroke="none">
<path d="M12544 10848 c-394 -638 -624 -941 -980 -1288 -296 -289 -569 -495
-1014 -765 -640 -388 -1183 -791 -1770 -1313 -343 -306 -1171 -1149 -1467
-1495 -304 -354 -522 -698 -612 -966 -14 -43 -29 -79 -32 -82 -4 -2 -48 52
-98 121 -289 398 -550 639 -828 766 -156 72 -309 103 -538 111 -360 12 -612
-78 -844 -302 -377 -364 -602 -895 -527 -1245 10 -48 9 -60 -8 -100 -10 -25
-20 -46 -21 -48 -5 -6 -550 280 -679 356 -5 3 6 13 24 22 95 49 181 181 216
330 52 226 13 737 -73 955 -108 273 -254 480 -436 619 -64 49 -317 214 -374
244 -21 12 -23 9 -47 -66 -77 -245 -107 -635 -75 -999 24 -269 187 -691 353
-912 14 -19 26 -38 26 -43 0 -4 -36 8 -81 27 -291 125 -530 333 -748 649 l-73
108 45 96 c78 166 127 349 152 558 28 236 20 293 -66 501 -78 186 -171 322
-369 537 l-123 134 -49 -81 c-138 -233 -157 -302 -165 -598 -6 -227 3 -307 57
-516 34 -132 74 -229 139 -338 42 -71 76 -145 66 -145 -1 0 -59 38 -128 84
-241 163 -397 220 -637 237 -80 5 -170 14 -200 19 -127 20 -267 3 -365 -45
-28 -13 -74 -46 -104 -72 l-53 -48 16 -64 c52 -205 198 -362 526 -565 163
-101 259 -145 382 -177 258 -65 516 -13 792 161 35 22 66 40 69 40 3 0 34 -37
69 -82 129 -170 342 -371 493 -465 62 -39 175 -93 194 -93 8 0 12 -2 9 -5 -2
-3 -54 6 -114 20 -163 36 -345 49 -495 35 -435 -39 -804 -223 -1203 -602 l-99
-94 179 -115 c215 -139 325 -205 422 -254 272 -135 526 -187 801 -164 123 11
128 12 226 62 214 110 411 265 522 412 87 115 163 311 163 422 0 24 5 43 11
43 38 0 717 -215 735 -233 2 -1 -20 -41 -48 -87 -114 -191 -149 -281 -132
-346 18 -74 118 -98 314 -75 417 49 446 49 484 3 41 -52 191 -204 221 -225
l30 -22 -24 40 c-63 106 -91 165 -106 220 -15 59 -21 175 -8 175 11 0 333
-170 468 -248 538 -309 1063 -680 1575 -1114 l115 -98 159 -311 159 -312 -59
7 c-339 40 -656 125 -911 246 -248 118 -433 248 -623 439 -133 133 -225 255
-302 398 -50 92 -118 282 -118 328 0 23 -3 26 -23 21 -12 -3 -48 -11 -79 -18
-32 -7 -58 -17 -58 -24 0 -21 105 -274 163 -394 159 -326 343 -566 537 -702
235 -163 539 -304 829 -384 194 -53 309 -71 656 -102 l80 -7 43 -100 c140
-324 225 -571 322 -934 34 -127 58 -197 77 -225 41 -59 144 -167 222 -230 l67
-55 85 35 c214 89 277 133 350 248 l39 61 -43 7 c-23 3 -71 7 -107 7 -36 1
-70 5 -75 9 -6 4 -85 142 -174 306 -152 279 -380 681 -465 821 -23 38 -32 61
-24 62 7 1 87 9 178 18 91 9 224 27 296 40 610 113 1278 465 1809 955 55 50
106 99 113 108 11 14 16 14 60 -7 111 -54 223 -152 275 -242 63 -109 103 -309
113 -570 4 -102 11 -180 18 -188 19 -24 186 -98 276 -123 74 -19 109 -23 270
-23 209 0 287 13 514 86 619 197 1006 491 1064 807 l9 53 -100 132 c-137 180
-198 257 -285 359 -93 110 -796 797 -899 880 -108 86 -269 189 -393 252 -92
47 -327 146 -346 146 -4 0 46 -37 112 -81 457 -312 926 -743 1131 -1041 56
-80 142 -246 196 -378 48 -116 127 -337 127 -353 0 -7 -38 -46 -84 -85 l-85
-72 -34 58 c-61 101 -433 746 -451 780 -40 79 -19 13 64 -193 161 -405 287
-776 278 -822 -2 -14 -32 -23 -143 -45 -77 -16 -146 -27 -153 -26 -8 2 -67
141 -133 313 -158 410 -168 433 -169 410 0 -23 66 -709 75 -767 l5 -37 -152
-49 c-84 -27 -156 -46 -159 -43 -4 3 -39 168 -78 365 -40 198 -74 362 -76 365
-3 2 -5 -20 -6 -50 0 -30 -8 -202 -17 -384 l-17 -330 -136 -3 -136 -3 -7 178
c-8 214 -27 357 -61 461 -31 91 -117 243 -228 401 l-80 114 76 191 c42 105 79
200 83 211 4 11 -24 -25 -61 -80 -261 -384 -502 -649 -788 -864 -493 -370
-1041 -589 -1602 -640 -60 -5 -169 -13 -241 -16 l-131 -6 -123 198 c-68 109
-181 286 -251 393 -118 179 -138 204 -246 306 -349 326 -612 542 -923 756
-347 238 -894 530 -1077 574 -37 9 -87 27 -111 41 -23 13 -46 22 -51 19 -4 -3
-9 26 -10 64 -2 75 -22 163 -47 212 -24 46 -96 114 -151 141 -70 36 -147 50
-246 46 l-87 -4 0 85 c0 245 57 462 165 624 53 80 199 239 300 326 225 195
404 283 644 318 96 13 129 14 220 4 103 -12 216 -38 287 -68 33 -14 34 -16 34
-67 0 -84 7 -88 151 -97 116 -7 159 -14 159 -28 0 -3 -20 -43 -45 -89 l-45
-83 57 0 c31 0 94 5 140 12 45 7 85 9 88 7 3 -3 -13 -45 -36 -93 -23 -50 -37
-92 -32 -97 4 -4 65 -10 133 -11 l125 -3 3 -33 c3 -25 -8 -52 -42 -110 -24
-42 -46 -86 -48 -96 -4 -25 25 -34 113 -35 74 -1 86 -9 116 -76 15 -34 17 -66
15 -215 -1 -96 0 -196 4 -221 l5 -46 92 34 c51 19 122 50 158 69 l66 35 6 67
c36 378 398 1005 1006 1737 589 709 1026 1090 1931 1680 91 60 341 224 555
365 424 279 698 450 1070 667 398 231 982 563 992 563 10 0 47 -133 83 -300
104 -484 119 -1009 40 -1395 -36 -178 -138 -577 -181 -710 -161 -505 -331
-791 -660 -1110 -211 -204 -397 -337 -624 -446 -170 -81 -279 -118 -865 -289
-287 -83 -570 -173 -570 -181 0 -11 73 -18 345 -34 335 -19 418 -34 492 -91
99 -75 80 -222 -42 -332 -189 -168 -527 -279 -1259 -415 -160 -29 -291 -58
-293 -63 -5 -16 11 -31 67 -62 64 -35 82 -58 60 -72 -49 -32 -259 -101 -490
-161 -146 -38 -299 -79 -340 -92 l-75 -24 70 -16 c353 -81 665 -26 1017 181
137 80 135 94 -27 157 -14 6 6 12 70 22 557 85 1074 255 1313 432 154 114 279
264 384 458 l47 88 -42 7 c-23 3 -133 7 -244 7 -185 1 -413 20 -466 40 -23 9
92 41 429 120 449 105 553 154 820 384 610 526 918 1049 1179 2000 146 531
213 968 246 1587 20 380 0 899 -46 1218 -29 196 -95 492 -109 492 -3 0 -44
-64 -92 -142z"/>
<path d="M6595 9508 c-36 -28 -59 -84 -79 -198 -66 -360 -144 -501 -566 -1020
-273 -337 -318 -401 -500 -705 -271 -454 -380 -729 -424 -1073 -16 -125 -21
-373 -10 -469 l7 -53 57 0 58 0 6 118 c25 438 94 710 267 1052 88 175 172 311
444 720 225 338 326 480 452 638 96 119 338 382 352 382 14 0 20 -51 41 -348
31 -429 55 -568 137 -772 77 -194 126 -272 324 -521 64 -80 135 -180 157 -221
90 -163 151 -382 171 -616 5 -63 11 -116 14 -118 3 -3 35 23 71 57 l66 62 -6
66 c-10 104 -31 196 -79 338 -58 174 -78 220 -265 598 -201 406 -262 559 -335
840 -71 277 -93 447 -104 810 -9 289 -14 320 -67 396 -13 20 -36 41 -50 48
-41 19 -108 14 -139 -11z"/>
<path d="M143 8224 c-164 -207 -184 -577 -63 -1158 19 -93 24 -104 77 -170 88
-110 326 -342 453 -440 106 -82 260 -189 353 -245 l38 -23 -15 37 c-13 29 -13
41 -4 58 7 12 13 27 15 32 1 6 16 48 32 95 17 47 35 114 40 150 16 96 13 283
-5 391 -17 102 -86 322 -127 406 -59 123 -351 483 -598 737 l-165 169 -31 -39z"/>
<path d="M7960 5945 l-125 -42 -10 -93 -10 -94 -55 3 c-30 1 -59 5 -64 8 -5 3
-6 -30 -2 -79 l8 -86 -101 -31 -101 -32 0 -99 0 -99 -54 -15 c-30 -9 -59 -16
-64 -16 -21 0 -22 -19 -6 -92 l15 -73 -67 -62 -68 -62 24 -50 c13 -28 22 -52
19 -54 -2 -2 -35 -26 -74 -52 -38 -27 -72 -50 -74 -51 -2 -2 15 -29 38 -61 23
-33 41 -61 41 -64 0 -3 -40 -25 -89 -49 l-90 -44 51 -58 c28 -32 49 -60 47
-62 -2 -2 -39 -23 -82 -46 -43 -23 -75 -46 -70 -50 26 -22 185 -132 187 -129
1 2 15 65 30 139 86 417 246 778 508 1147 44 62 145 197 225 299 79 102 143
187 141 189 -2 1 -59 -17 -128 -40z"/>
<path d="M4735 4882 c-46 -16 -137 -71 -149 -91 -3 -4 23 -11 57 -14 35 -3 90
-16 123 -29 l59 -22 -60 -8 c-154 -19 -235 -63 -255 -140 -22 -79 28 -175 108
-210 37 -17 61 -20 131 -16 47 2 99 11 116 19 71 34 132 160 144 298 7 80 6
86 -18 122 -31 44 -67 74 -115 94 -46 19 -79 18 -141 -3z"/>
</g>
</svg>
